<mxfile host="app.diagrams.net" modified="2021-11-17T18:59:40.861Z" agent="5.0 (Windows NT 10.0; Win64; x64) AppleWebKit/537.36 (KHTML, like Gecko) Chrome/95.0.4638.69 Safari/537.36" etag="Ff2NgZNVNdVI0y4BSdRb" version="15.7.3" type="github">
  <diagram id="R2lEEEUBdFMjLlhIrx00" name="Page-1">
    <mxGraphModel dx="1497" dy="803" grid="1" gridSize="10" guides="1" tooltips="1" connect="1" arrows="1" fold="1" page="1" pageScale="1" pageWidth="850" pageHeight="1100" math="0" shadow="0" extFonts="Permanent Marker^https://fonts.googleapis.com/css?family=Permanent+Marker">
      <root>
        <mxCell id="0" />
        <mxCell id="1" parent="0" />
        <mxCell id="rgqKugWzis6uIpZlZRa2-1" value="CD" style="rounded=1;whiteSpace=wrap;html=1;fillColor=#1ba1e2;strokeColor=#006EAF;fontColor=#ffffff;" vertex="1" parent="1">
          <mxGeometry x="360" y="150" width="80" height="40" as="geometry" />
        </mxCell>
        <mxCell id="rgqKugWzis6uIpZlZRa2-2" value="musicType" style="ellipse;whiteSpace=wrap;html=1;" vertex="1" parent="1">
          <mxGeometry x="490" y="100" width="70" height="45" as="geometry" />
        </mxCell>
        <mxCell id="rgqKugWzis6uIpZlZRa2-3" value="id" style="ellipse;whiteSpace=wrap;html=1;" vertex="1" parent="1">
          <mxGeometry x="470" y="57.5" width="40" height="25" as="geometry" />
        </mxCell>
        <mxCell id="rgqKugWzis6uIpZlZRa2-4" value="recordLabel" style="ellipse;whiteSpace=wrap;html=1;" vertex="1" parent="1">
          <mxGeometry x="360" y="50" width="80" height="40" as="geometry" />
        </mxCell>
        <mxCell id="rgqKugWzis6uIpZlZRa2-5" value="artist" style="ellipse;whiteSpace=wrap;html=1;" vertex="1" parent="1">
          <mxGeometry x="260" y="75" width="70" height="25" as="geometry" />
        </mxCell>
        <mxCell id="rgqKugWzis6uIpZlZRa2-6" value="" style="endArrow=none;html=1;rounded=0;" edge="1" parent="1" source="rgqKugWzis6uIpZlZRa2-1" target="rgqKugWzis6uIpZlZRa2-2">
          <mxGeometry width="50" height="50" relative="1" as="geometry">
            <mxPoint x="630" y="180" as="sourcePoint" />
            <mxPoint x="680" y="130" as="targetPoint" />
          </mxGeometry>
        </mxCell>
        <mxCell id="rgqKugWzis6uIpZlZRa2-7" value="releaseDate" style="ellipse;whiteSpace=wrap;html=1;" vertex="1" parent="1">
          <mxGeometry x="230" y="130" width="80" height="50" as="geometry" />
        </mxCell>
        <mxCell id="rgqKugWzis6uIpZlZRa2-10" value="" style="endArrow=none;html=1;rounded=0;" edge="1" parent="1" source="rgqKugWzis6uIpZlZRa2-1" target="rgqKugWzis6uIpZlZRa2-5">
          <mxGeometry width="50" height="50" relative="1" as="geometry">
            <mxPoint x="630" y="190" as="sourcePoint" />
            <mxPoint x="680" y="140" as="targetPoint" />
          </mxGeometry>
        </mxCell>
        <mxCell id="rgqKugWzis6uIpZlZRa2-11" value="" style="endArrow=none;html=1;rounded=0;entryX=0.5;entryY=1;entryDx=0;entryDy=0;" edge="1" parent="1" source="rgqKugWzis6uIpZlZRa2-1" target="rgqKugWzis6uIpZlZRa2-3">
          <mxGeometry width="50" height="50" relative="1" as="geometry">
            <mxPoint x="630" y="190" as="sourcePoint" />
            <mxPoint x="680" y="140" as="targetPoint" />
          </mxGeometry>
        </mxCell>
        <mxCell id="rgqKugWzis6uIpZlZRa2-12" value="" style="endArrow=none;html=1;rounded=0;" edge="1" parent="1" source="rgqKugWzis6uIpZlZRa2-1" target="rgqKugWzis6uIpZlZRa2-4">
          <mxGeometry width="50" height="50" relative="1" as="geometry">
            <mxPoint x="640" y="200" as="sourcePoint" />
            <mxPoint x="690" y="150" as="targetPoint" />
          </mxGeometry>
        </mxCell>
        <mxCell id="rgqKugWzis6uIpZlZRa2-13" value="" style="endArrow=none;html=1;rounded=0;entryX=1;entryY=1;entryDx=0;entryDy=0;" edge="1" parent="1" source="rgqKugWzis6uIpZlZRa2-1" target="rgqKugWzis6uIpZlZRa2-7">
          <mxGeometry width="50" height="50" relative="1" as="geometry">
            <mxPoint x="650" y="210" as="sourcePoint" />
            <mxPoint x="700" y="160" as="targetPoint" />
          </mxGeometry>
        </mxCell>
        <mxCell id="rgqKugWzis6uIpZlZRa2-14" value="DeliveryInfo" style="rounded=1;whiteSpace=wrap;html=1;fillColor=#1ba1e2;strokeColor=#006EAF;fontColor=#ffffff;" vertex="1" parent="1">
          <mxGeometry x="110" y="310" width="90" height="40" as="geometry" />
        </mxCell>
        <mxCell id="rgqKugWzis6uIpZlZRa2-15" value="instructions" style="ellipse;whiteSpace=wrap;html=1;" vertex="1" parent="1">
          <mxGeometry x="220" y="240" width="90" height="50" as="geometry" />
        </mxCell>
        <mxCell id="rgqKugWzis6uIpZlZRa2-16" value="id" style="ellipse;whiteSpace=wrap;html=1;" vertex="1" parent="1">
          <mxGeometry x="5" y="330" width="80" height="30" as="geometry" />
        </mxCell>
        <mxCell id="rgqKugWzis6uIpZlZRa2-17" value="province" style="ellipse;whiteSpace=wrap;html=1;" vertex="1" parent="1">
          <mxGeometry x="150" y="190" width="90" height="50" as="geometry" />
        </mxCell>
        <mxCell id="rgqKugWzis6uIpZlZRa2-18" value="name" style="ellipse;whiteSpace=wrap;html=1;" vertex="1" parent="1">
          <mxGeometry x="40" y="200" width="80" height="50" as="geometry" />
        </mxCell>
        <mxCell id="rgqKugWzis6uIpZlZRa2-19" value="address" style="ellipse;whiteSpace=wrap;html=1;" vertex="1" parent="1">
          <mxGeometry y="270" width="90" height="40" as="geometry" />
        </mxCell>
        <mxCell id="rgqKugWzis6uIpZlZRa2-20" value="" style="endArrow=none;html=1;rounded=0;" edge="1" parent="1" source="rgqKugWzis6uIpZlZRa2-14" target="rgqKugWzis6uIpZlZRa2-19">
          <mxGeometry width="50" height="50" relative="1" as="geometry">
            <mxPoint x="360" y="420" as="sourcePoint" />
            <mxPoint x="410" y="370" as="targetPoint" />
          </mxGeometry>
        </mxCell>
        <mxCell id="rgqKugWzis6uIpZlZRa2-21" value="" style="endArrow=none;html=1;rounded=0;" edge="1" parent="1" source="rgqKugWzis6uIpZlZRa2-14" target="rgqKugWzis6uIpZlZRa2-18">
          <mxGeometry width="50" height="50" relative="1" as="geometry">
            <mxPoint x="370" y="430" as="sourcePoint" />
            <mxPoint x="420" y="380" as="targetPoint" />
          </mxGeometry>
        </mxCell>
        <mxCell id="rgqKugWzis6uIpZlZRa2-22" value="" style="endArrow=none;html=1;rounded=0;" edge="1" parent="1" source="rgqKugWzis6uIpZlZRa2-14" target="rgqKugWzis6uIpZlZRa2-17">
          <mxGeometry width="50" height="50" relative="1" as="geometry">
            <mxPoint x="380" y="440" as="sourcePoint" />
            <mxPoint x="430" y="390" as="targetPoint" />
          </mxGeometry>
        </mxCell>
        <mxCell id="rgqKugWzis6uIpZlZRa2-23" value="" style="endArrow=none;html=1;rounded=0;" edge="1" parent="1" source="rgqKugWzis6uIpZlZRa2-14" target="rgqKugWzis6uIpZlZRa2-15">
          <mxGeometry width="50" height="50" relative="1" as="geometry">
            <mxPoint x="390" y="450" as="sourcePoint" />
            <mxPoint x="440" y="400" as="targetPoint" />
          </mxGeometry>
        </mxCell>
        <mxCell id="rgqKugWzis6uIpZlZRa2-24" value="" style="endArrow=none;html=1;rounded=0;entryX=1;entryY=0;entryDx=0;entryDy=0;" edge="1" parent="1" source="rgqKugWzis6uIpZlZRa2-14" target="rgqKugWzis6uIpZlZRa2-16">
          <mxGeometry width="50" height="50" relative="1" as="geometry">
            <mxPoint x="400" y="460" as="sourcePoint" />
            <mxPoint x="450" y="410" as="targetPoint" />
          </mxGeometry>
        </mxCell>
        <mxCell id="rgqKugWzis6uIpZlZRa2-26" value="Order" style="rounded=1;whiteSpace=wrap;html=1;fillColor=#1ba1e2;strokeColor=#006EAF;fontColor=#ffffff;" vertex="1" parent="1">
          <mxGeometry x="130" y="480" width="90" height="40" as="geometry" />
        </mxCell>
        <mxCell id="rgqKugWzis6uIpZlZRa2-27" value="shippingFee" style="ellipse;whiteSpace=wrap;html=1;" vertex="1" parent="1">
          <mxGeometry x="5" y="500" width="90" height="50" as="geometry" />
        </mxCell>
        <mxCell id="rgqKugWzis6uIpZlZRa2-28" value="id" style="ellipse;whiteSpace=wrap;html=1;" vertex="1" parent="1">
          <mxGeometry y="410" width="80" height="50" as="geometry" />
        </mxCell>
        <mxCell id="rgqKugWzis6uIpZlZRa2-29" value="" style="endArrow=none;html=1;rounded=0;entryX=1;entryY=0.5;entryDx=0;entryDy=0;" edge="1" parent="1" source="rgqKugWzis6uIpZlZRa2-26" target="rgqKugWzis6uIpZlZRa2-27">
          <mxGeometry width="50" height="50" relative="1" as="geometry">
            <mxPoint x="360" y="420" as="sourcePoint" />
            <mxPoint x="410" y="370" as="targetPoint" />
          </mxGeometry>
        </mxCell>
        <mxCell id="rgqKugWzis6uIpZlZRa2-30" value="" style="endArrow=none;html=1;rounded=0;entryX=1;entryY=0.5;entryDx=0;entryDy=0;" edge="1" parent="1" source="rgqKugWzis6uIpZlZRa2-26" target="rgqKugWzis6uIpZlZRa2-28">
          <mxGeometry width="50" height="50" relative="1" as="geometry">
            <mxPoint x="370" y="430" as="sourcePoint" />
            <mxPoint x="420" y="380" as="targetPoint" />
          </mxGeometry>
        </mxCell>
        <mxCell id="rgqKugWzis6uIpZlZRa2-31" value="Invoice" style="rounded=1;whiteSpace=wrap;html=1;fillColor=#1ba1e2;strokeColor=#006EAF;fontColor=#ffffff;" vertex="1" parent="1">
          <mxGeometry x="170" y="665" width="85" height="50" as="geometry" />
        </mxCell>
        <mxCell id="rgqKugWzis6uIpZlZRa2-32" value="totalAmount" style="ellipse;whiteSpace=wrap;html=1;" vertex="1" parent="1">
          <mxGeometry y="760" width="90" height="50" as="geometry" />
        </mxCell>
        <mxCell id="rgqKugWzis6uIpZlZRa2-33" value="id" style="ellipse;whiteSpace=wrap;html=1;" vertex="1" parent="1">
          <mxGeometry x="10" y="665" width="60" height="40" as="geometry" />
        </mxCell>
        <mxCell id="rgqKugWzis6uIpZlZRa2-34" value="" style="endArrow=none;html=1;rounded=0;" edge="1" parent="1" source="rgqKugWzis6uIpZlZRa2-31" target="rgqKugWzis6uIpZlZRa2-32">
          <mxGeometry width="50" height="50" relative="1" as="geometry">
            <mxPoint x="360" y="680" as="sourcePoint" />
            <mxPoint x="410" y="630" as="targetPoint" />
          </mxGeometry>
        </mxCell>
        <mxCell id="rgqKugWzis6uIpZlZRa2-35" value="" style="endArrow=none;html=1;rounded=0;entryX=1;entryY=1;entryDx=0;entryDy=0;" edge="1" parent="1" source="rgqKugWzis6uIpZlZRa2-31" target="rgqKugWzis6uIpZlZRa2-33">
          <mxGeometry width="50" height="50" relative="1" as="geometry">
            <mxPoint x="370" y="690" as="sourcePoint" />
            <mxPoint x="420" y="640" as="targetPoint" />
          </mxGeometry>
        </mxCell>
        <mxCell id="rgqKugWzis6uIpZlZRa2-36" value="Has" style="rhombus;whiteSpace=wrap;html=1;fillColor=#f8cecc;strokeColor=#b85450;" vertex="1" parent="1">
          <mxGeometry x="155" y="550" width="65" height="60" as="geometry" />
        </mxCell>
        <mxCell id="rgqKugWzis6uIpZlZRa2-37" value="" style="endArrow=none;html=1;rounded=0;" edge="1" parent="1" source="rgqKugWzis6uIpZlZRa2-36" target="rgqKugWzis6uIpZlZRa2-26">
          <mxGeometry width="50" height="50" relative="1" as="geometry">
            <mxPoint x="360" y="680" as="sourcePoint" />
            <mxPoint x="410" y="630" as="targetPoint" />
          </mxGeometry>
        </mxCell>
        <mxCell id="rgqKugWzis6uIpZlZRa2-38" value="" style="endArrow=none;html=1;rounded=0;" edge="1" parent="1" source="rgqKugWzis6uIpZlZRa2-31" target="rgqKugWzis6uIpZlZRa2-36">
          <mxGeometry width="50" height="50" relative="1" as="geometry">
            <mxPoint x="370" y="690" as="sourcePoint" />
            <mxPoint x="420" y="640" as="targetPoint" />
          </mxGeometry>
        </mxCell>
        <mxCell id="rgqKugWzis6uIpZlZRa2-39" value="Has" style="rhombus;whiteSpace=wrap;html=1;fillColor=#f8cecc;strokeColor=#b85450;" vertex="1" parent="1">
          <mxGeometry x="130" y="380" width="55" height="60" as="geometry" />
        </mxCell>
        <mxCell id="rgqKugWzis6uIpZlZRa2-40" value="" style="endArrow=none;html=1;rounded=0;entryX=0.5;entryY=1;entryDx=0;entryDy=0;exitX=0.5;exitY=0;exitDx=0;exitDy=0;" edge="1" parent="1" source="rgqKugWzis6uIpZlZRa2-39" target="rgqKugWzis6uIpZlZRa2-14">
          <mxGeometry width="50" height="50" relative="1" as="geometry">
            <mxPoint x="325" y="510" as="sourcePoint" />
            <mxPoint x="160" y="340" as="targetPoint" />
          </mxGeometry>
        </mxCell>
        <mxCell id="rgqKugWzis6uIpZlZRa2-41" value="" style="endArrow=none;html=1;rounded=0;" edge="1" parent="1" target="rgqKugWzis6uIpZlZRa2-39" source="rgqKugWzis6uIpZlZRa2-26">
          <mxGeometry width="50" height="50" relative="1" as="geometry">
            <mxPoint x="310" y="450" as="sourcePoint" />
            <mxPoint x="385" y="470" as="targetPoint" />
          </mxGeometry>
        </mxCell>
        <mxCell id="rgqKugWzis6uIpZlZRa2-42" value="PaymentTransaction" style="rounded=1;whiteSpace=wrap;html=1;fillColor=#1ba1e2;strokeColor=#006EAF;fontColor=#ffffff;" vertex="1" parent="1">
          <mxGeometry x="180" y="870" width="120" height="40" as="geometry" />
        </mxCell>
        <mxCell id="rgqKugWzis6uIpZlZRa2-43" value="method" style="ellipse;whiteSpace=wrap;html=1;" vertex="1" parent="1">
          <mxGeometry x="320" y="960" width="70" height="40" as="geometry" />
        </mxCell>
        <mxCell id="rgqKugWzis6uIpZlZRa2-44" value="createAt" style="ellipse;whiteSpace=wrap;html=1;" vertex="1" parent="1">
          <mxGeometry x="180" y="960" width="80" height="40" as="geometry" />
        </mxCell>
        <mxCell id="rgqKugWzis6uIpZlZRa2-45" value="contents" style="ellipse;whiteSpace=wrap;html=1;" vertex="1" parent="1">
          <mxGeometry x="60" y="940" width="70" height="50" as="geometry" />
        </mxCell>
        <mxCell id="rgqKugWzis6uIpZlZRa2-46" value="id" style="ellipse;whiteSpace=wrap;html=1;" vertex="1" parent="1">
          <mxGeometry x="25" y="860" width="70" height="40" as="geometry" />
        </mxCell>
        <mxCell id="rgqKugWzis6uIpZlZRa2-47" value="" style="endArrow=none;html=1;rounded=0;exitX=0.5;exitY=0;exitDx=0;exitDy=0;entryX=0.5;entryY=1;entryDx=0;entryDy=0;" edge="1" parent="1" source="rgqKugWzis6uIpZlZRa2-42" target="rgqKugWzis6uIpZlZRa2-55">
          <mxGeometry width="50" height="50" relative="1" as="geometry">
            <mxPoint x="360" y="940" as="sourcePoint" />
            <mxPoint x="410" y="890" as="targetPoint" />
          </mxGeometry>
        </mxCell>
        <mxCell id="rgqKugWzis6uIpZlZRa2-48" value="" style="endArrow=none;html=1;rounded=0;entryX=0.5;entryY=1;entryDx=0;entryDy=0;" edge="1" parent="1" source="rgqKugWzis6uIpZlZRa2-55" target="rgqKugWzis6uIpZlZRa2-31">
          <mxGeometry width="50" height="50" relative="1" as="geometry">
            <mxPoint x="370" y="950" as="sourcePoint" />
            <mxPoint x="420" y="900" as="targetPoint" />
          </mxGeometry>
        </mxCell>
        <mxCell id="rgqKugWzis6uIpZlZRa2-49" value="" style="endArrow=none;html=1;rounded=0;exitX=1;exitY=0.5;exitDx=0;exitDy=0;entryX=0;entryY=0.5;entryDx=0;entryDy=0;" edge="1" parent="1" source="rgqKugWzis6uIpZlZRa2-42" target="rgqKugWzis6uIpZlZRa2-56">
          <mxGeometry width="50" height="50" relative="1" as="geometry">
            <mxPoint x="380" y="960" as="sourcePoint" />
            <mxPoint x="430" y="910" as="targetPoint" />
          </mxGeometry>
        </mxCell>
        <mxCell id="rgqKugWzis6uIpZlZRa2-50" value="" style="endArrow=none;html=1;rounded=0;entryX=1;entryY=0.5;entryDx=0;entryDy=0;" edge="1" parent="1" target="rgqKugWzis6uIpZlZRa2-56">
          <mxGeometry width="50" height="50" relative="1" as="geometry">
            <mxPoint x="540" y="890" as="sourcePoint" />
            <mxPoint x="440" y="920" as="targetPoint" />
          </mxGeometry>
        </mxCell>
        <mxCell id="rgqKugWzis6uIpZlZRa2-51" value="" style="endArrow=none;html=1;rounded=0;" edge="1" parent="1" source="rgqKugWzis6uIpZlZRa2-43" target="rgqKugWzis6uIpZlZRa2-42">
          <mxGeometry width="50" height="50" relative="1" as="geometry">
            <mxPoint x="400" y="980" as="sourcePoint" />
            <mxPoint x="450" y="930" as="targetPoint" />
          </mxGeometry>
        </mxCell>
        <mxCell id="rgqKugWzis6uIpZlZRa2-52" value="" style="endArrow=none;html=1;rounded=0;" edge="1" parent="1" source="rgqKugWzis6uIpZlZRa2-42" target="rgqKugWzis6uIpZlZRa2-44">
          <mxGeometry width="50" height="50" relative="1" as="geometry">
            <mxPoint x="410" y="990" as="sourcePoint" />
            <mxPoint x="460" y="940" as="targetPoint" />
          </mxGeometry>
        </mxCell>
        <mxCell id="rgqKugWzis6uIpZlZRa2-53" value="" style="endArrow=none;html=1;rounded=0;exitX=1;exitY=1;exitDx=0;exitDy=0;" edge="1" parent="1" source="rgqKugWzis6uIpZlZRa2-46" target="rgqKugWzis6uIpZlZRa2-42">
          <mxGeometry width="50" height="50" relative="1" as="geometry">
            <mxPoint x="420" y="1000" as="sourcePoint" />
            <mxPoint x="470" y="950" as="targetPoint" />
          </mxGeometry>
        </mxCell>
        <mxCell id="rgqKugWzis6uIpZlZRa2-54" value="" style="endArrow=none;html=1;rounded=0;exitX=0.25;exitY=1;exitDx=0;exitDy=0;entryX=0.5;entryY=0;entryDx=0;entryDy=0;" edge="1" parent="1" source="rgqKugWzis6uIpZlZRa2-42" target="rgqKugWzis6uIpZlZRa2-45">
          <mxGeometry width="50" height="50" relative="1" as="geometry">
            <mxPoint x="430" y="1010" as="sourcePoint" />
            <mxPoint x="480" y="960" as="targetPoint" />
          </mxGeometry>
        </mxCell>
        <mxCell id="rgqKugWzis6uIpZlZRa2-55" value="Has" style="rhombus;whiteSpace=wrap;html=1;fillColor=#f8cecc;strokeColor=#b85450;" vertex="1" parent="1">
          <mxGeometry x="180" y="750" width="70" height="60" as="geometry" />
        </mxCell>
        <mxCell id="rgqKugWzis6uIpZlZRa2-56" value="Has" style="rhombus;whiteSpace=wrap;html=1;fillColor=#f8cecc;strokeColor=#b85450;" vertex="1" parent="1">
          <mxGeometry x="390" y="860" width="65" height="60" as="geometry" />
        </mxCell>
        <mxCell id="rgqKugWzis6uIpZlZRa2-58" value="Card" style="rounded=1;whiteSpace=wrap;html=1;fillColor=#1ba1e2;strokeColor=#006EAF;fontColor=#ffffff;" vertex="1" parent="1">
          <mxGeometry x="530" y="860" width="120" height="60" as="geometry" />
        </mxCell>
        <mxCell id="rgqKugWzis6uIpZlZRa2-59" value="id" style="ellipse;whiteSpace=wrap;html=1;" vertex="1" parent="1">
          <mxGeometry x="425" y="935" width="80" height="40" as="geometry" />
        </mxCell>
        <mxCell id="rgqKugWzis6uIpZlZRa2-60" value="cardCode" style="ellipse;whiteSpace=wrap;html=1;" vertex="1" parent="1">
          <mxGeometry x="520" y="975" width="80" height="50" as="geometry" />
        </mxCell>
        <mxCell id="rgqKugWzis6uIpZlZRa2-61" value="owner" style="ellipse;whiteSpace=wrap;html=1;" vertex="1" parent="1">
          <mxGeometry x="630" y="985" width="70" height="40" as="geometry" />
        </mxCell>
        <mxCell id="rgqKugWzis6uIpZlZRa2-62" value="cvvCode" style="ellipse;whiteSpace=wrap;html=1;" vertex="1" parent="1">
          <mxGeometry x="700" y="940" width="80" height="50" as="geometry" />
        </mxCell>
        <mxCell id="rgqKugWzis6uIpZlZRa2-63" value="dateExpired" style="ellipse;whiteSpace=wrap;html=1;" vertex="1" parent="1">
          <mxGeometry x="720" y="870" width="80" height="50" as="geometry" />
        </mxCell>
        <mxCell id="rgqKugWzis6uIpZlZRa2-64" value="" style="endArrow=none;html=1;rounded=0;entryX=0;entryY=0.75;entryDx=0;entryDy=0;exitX=1;exitY=0;exitDx=0;exitDy=0;" edge="1" parent="1" source="rgqKugWzis6uIpZlZRa2-59" target="rgqKugWzis6uIpZlZRa2-58">
          <mxGeometry width="50" height="50" relative="1" as="geometry">
            <mxPoint x="360" y="940" as="sourcePoint" />
            <mxPoint x="410" y="890" as="targetPoint" />
          </mxGeometry>
        </mxCell>
        <mxCell id="rgqKugWzis6uIpZlZRa2-65" value="" style="endArrow=none;html=1;rounded=0;entryX=1;entryY=0.5;entryDx=0;entryDy=0;" edge="1" parent="1" source="rgqKugWzis6uIpZlZRa2-63" target="rgqKugWzis6uIpZlZRa2-58">
          <mxGeometry width="50" height="50" relative="1" as="geometry">
            <mxPoint x="370" y="950" as="sourcePoint" />
            <mxPoint x="420" y="900" as="targetPoint" />
          </mxGeometry>
        </mxCell>
        <mxCell id="rgqKugWzis6uIpZlZRa2-66" value="" style="endArrow=none;html=1;rounded=0;entryX=1;entryY=1;entryDx=0;entryDy=0;" edge="1" parent="1" source="rgqKugWzis6uIpZlZRa2-62" target="rgqKugWzis6uIpZlZRa2-58">
          <mxGeometry width="50" height="50" relative="1" as="geometry">
            <mxPoint x="380" y="960" as="sourcePoint" />
            <mxPoint x="430" y="910" as="targetPoint" />
          </mxGeometry>
        </mxCell>
        <mxCell id="rgqKugWzis6uIpZlZRa2-67" value="" style="endArrow=none;html=1;rounded=0;entryX=0.75;entryY=1;entryDx=0;entryDy=0;" edge="1" parent="1" source="rgqKugWzis6uIpZlZRa2-61" target="rgqKugWzis6uIpZlZRa2-58">
          <mxGeometry width="50" height="50" relative="1" as="geometry">
            <mxPoint x="390" y="970" as="sourcePoint" />
            <mxPoint x="440" y="920" as="targetPoint" />
          </mxGeometry>
        </mxCell>
        <mxCell id="rgqKugWzis6uIpZlZRa2-68" value="" style="endArrow=none;html=1;rounded=0;entryX=0.5;entryY=1;entryDx=0;entryDy=0;" edge="1" parent="1" source="rgqKugWzis6uIpZlZRa2-60" target="rgqKugWzis6uIpZlZRa2-58">
          <mxGeometry width="50" height="50" relative="1" as="geometry">
            <mxPoint x="400" y="980" as="sourcePoint" />
            <mxPoint x="450" y="930" as="targetPoint" />
          </mxGeometry>
        </mxCell>
        <mxCell id="rgqKugWzis6uIpZlZRa2-69" value="Media" style="rounded=1;whiteSpace=wrap;html=1;fillColor=#1ba1e2;strokeColor=#006EAF;fontColor=#ffffff;" vertex="1" parent="1">
          <mxGeometry x="600" y="410" width="80" height="40" as="geometry" />
        </mxCell>
        <mxCell id="rgqKugWzis6uIpZlZRa2-70" value="Has" style="rhombus;whiteSpace=wrap;html=1;fillColor=#f8cecc;strokeColor=#b85450;" vertex="1" parent="1">
          <mxGeometry x="355" y="315" width="65" height="60" as="geometry" />
        </mxCell>
        <mxCell id="rgqKugWzis6uIpZlZRa2-71" value="is_a" style="rhombus;whiteSpace=wrap;html=1;fillColor=#f8cecc;strokeColor=#b85450;" vertex="1" parent="1">
          <mxGeometry x="380" y="240" width="65" height="60" as="geometry" />
        </mxCell>
        <mxCell id="rgqKugWzis6uIpZlZRa2-72" value="is_a" style="rhombus;whiteSpace=wrap;html=1;fillColor=#f8cecc;strokeColor=#b85450;" vertex="1" parent="1">
          <mxGeometry x="630" y="560" width="60" height="60" as="geometry" />
        </mxCell>
        <mxCell id="rgqKugWzis6uIpZlZRa2-73" value="is_a" style="rhombus;whiteSpace=wrap;html=1;fillColor=#f8cecc;strokeColor=#b85450;" vertex="1" parent="1">
          <mxGeometry x="645" y="255" width="60" height="60" as="geometry" />
        </mxCell>
        <mxCell id="rgqKugWzis6uIpZlZRa2-74" value="" style="endArrow=none;html=1;rounded=0;exitX=1;exitY=0.75;exitDx=0;exitDy=0;" edge="1" parent="1" source="rgqKugWzis6uIpZlZRa2-14" target="rgqKugWzis6uIpZlZRa2-70">
          <mxGeometry width="50" height="50" relative="1" as="geometry">
            <mxPoint x="360" y="420" as="sourcePoint" />
            <mxPoint x="410" y="370" as="targetPoint" />
          </mxGeometry>
        </mxCell>
        <mxCell id="rgqKugWzis6uIpZlZRa2-75" value="" style="endArrow=none;html=1;rounded=0;entryX=1;entryY=0.5;entryDx=0;entryDy=0;" edge="1" parent="1" source="rgqKugWzis6uIpZlZRa2-69" target="rgqKugWzis6uIpZlZRa2-70">
          <mxGeometry width="50" height="50" relative="1" as="geometry">
            <mxPoint x="360" y="420" as="sourcePoint" />
            <mxPoint x="410" y="370" as="targetPoint" />
          </mxGeometry>
        </mxCell>
        <mxCell id="rgqKugWzis6uIpZlZRa2-77" value="" style="endArrow=none;html=1;rounded=0;exitX=0.25;exitY=0;exitDx=0;exitDy=0;entryX=0.5;entryY=1;entryDx=0;entryDy=0;" edge="1" parent="1" source="rgqKugWzis6uIpZlZRa2-69" target="rgqKugWzis6uIpZlZRa2-71">
          <mxGeometry width="50" height="50" relative="1" as="geometry">
            <mxPoint x="360" y="420" as="sourcePoint" />
            <mxPoint x="410" y="370" as="targetPoint" />
          </mxGeometry>
        </mxCell>
        <mxCell id="rgqKugWzis6uIpZlZRa2-78" value="" style="endArrow=none;html=1;rounded=0;entryX=0.5;entryY=0;entryDx=0;entryDy=0;exitX=0.5;exitY=1;exitDx=0;exitDy=0;" edge="1" parent="1" source="rgqKugWzis6uIpZlZRa2-1" target="rgqKugWzis6uIpZlZRa2-71">
          <mxGeometry width="50" height="50" relative="1" as="geometry">
            <mxPoint x="360" y="420" as="sourcePoint" />
            <mxPoint x="410" y="370" as="targetPoint" />
          </mxGeometry>
        </mxCell>
        <mxCell id="rgqKugWzis6uIpZlZRa2-79" value="Book" style="rounded=1;whiteSpace=wrap;html=1;fillColor=#1ba1e2;strokeColor=#006EAF;fontColor=#ffffff;" vertex="1" parent="1">
          <mxGeometry x="670" y="145" width="90" height="40" as="geometry" />
        </mxCell>
        <mxCell id="rgqKugWzis6uIpZlZRa2-81" value="DVD" style="rounded=1;whiteSpace=wrap;html=1;fillColor=#1ba1e2;strokeColor=#006EAF;fontColor=#ffffff;" vertex="1" parent="1">
          <mxGeometry x="660" y="730" width="70" height="40" as="geometry" />
        </mxCell>
        <mxCell id="rgqKugWzis6uIpZlZRa2-82" value="" style="endArrow=none;html=1;rounded=0;entryX=0.5;entryY=1;entryDx=0;entryDy=0;exitX=0.5;exitY=0;exitDx=0;exitDy=0;" edge="1" parent="1" source="rgqKugWzis6uIpZlZRa2-69" target="rgqKugWzis6uIpZlZRa2-73">
          <mxGeometry width="50" height="50" relative="1" as="geometry">
            <mxPoint x="360" y="420" as="sourcePoint" />
            <mxPoint x="410" y="370" as="targetPoint" />
          </mxGeometry>
        </mxCell>
        <mxCell id="rgqKugWzis6uIpZlZRa2-83" value="" style="endArrow=none;html=1;rounded=0;entryX=0.5;entryY=1;entryDx=0;entryDy=0;exitX=0.5;exitY=0;exitDx=0;exitDy=0;" edge="1" parent="1" source="rgqKugWzis6uIpZlZRa2-73" target="rgqKugWzis6uIpZlZRa2-79">
          <mxGeometry width="50" height="50" relative="1" as="geometry">
            <mxPoint x="360" y="420" as="sourcePoint" />
            <mxPoint x="410" y="370" as="targetPoint" />
          </mxGeometry>
        </mxCell>
        <mxCell id="rgqKugWzis6uIpZlZRa2-84" value="" style="endArrow=none;html=1;rounded=0;entryX=0.5;entryY=0;entryDx=0;entryDy=0;" edge="1" parent="1" source="rgqKugWzis6uIpZlZRa2-72" target="rgqKugWzis6uIpZlZRa2-81">
          <mxGeometry width="50" height="50" relative="1" as="geometry">
            <mxPoint x="360" y="420" as="sourcePoint" />
            <mxPoint x="410" y="370" as="targetPoint" />
          </mxGeometry>
        </mxCell>
        <mxCell id="rgqKugWzis6uIpZlZRa2-85" value="" style="endArrow=none;html=1;rounded=0;exitX=0.5;exitY=0;exitDx=0;exitDy=0;entryX=0.5;entryY=1;entryDx=0;entryDy=0;" edge="1" parent="1" source="rgqKugWzis6uIpZlZRa2-72" target="rgqKugWzis6uIpZlZRa2-69">
          <mxGeometry width="50" height="50" relative="1" as="geometry">
            <mxPoint x="360" y="420" as="sourcePoint" />
            <mxPoint x="410" y="370" as="targetPoint" />
          </mxGeometry>
        </mxCell>
        <mxCell id="rgqKugWzis6uIpZlZRa2-89" value="studio" style="ellipse;whiteSpace=wrap;html=1;" vertex="1" parent="1">
          <mxGeometry x="815" y="760" width="70" height="40" as="geometry" />
        </mxCell>
        <mxCell id="rgqKugWzis6uIpZlZRa2-90" value="runtime" style="ellipse;whiteSpace=wrap;html=1;" vertex="1" parent="1">
          <mxGeometry x="705" y="810" width="60" height="40" as="geometry" />
        </mxCell>
        <mxCell id="rgqKugWzis6uIpZlZRa2-91" value="director" style="ellipse;whiteSpace=wrap;html=1;" vertex="1" parent="1">
          <mxGeometry x="590" y="810" width="80" height="40" as="geometry" />
        </mxCell>
        <mxCell id="rgqKugWzis6uIpZlZRa2-92" value="discType" style="ellipse;whiteSpace=wrap;html=1;" vertex="1" parent="1">
          <mxGeometry x="520" y="760" width="70" height="40" as="geometry" />
        </mxCell>
        <mxCell id="rgqKugWzis6uIpZlZRa2-93" value="id" style="ellipse;whiteSpace=wrap;html=1;" vertex="1" parent="1">
          <mxGeometry x="485" y="690" width="80" height="40" as="geometry" />
        </mxCell>
        <mxCell id="rgqKugWzis6uIpZlZRa2-94" value="subtitle" style="ellipse;whiteSpace=wrap;html=1;" vertex="1" parent="1">
          <mxGeometry x="830" y="700" width="70" height="30" as="geometry" />
        </mxCell>
        <mxCell id="rgqKugWzis6uIpZlZRa2-95" value="releaseDate" style="ellipse;whiteSpace=wrap;html=1;" vertex="1" parent="1">
          <mxGeometry x="810" y="650" width="80" height="30" as="geometry" />
        </mxCell>
        <mxCell id="rgqKugWzis6uIpZlZRa2-96" value="quantity" style="ellipse;whiteSpace=wrap;html=1;" vertex="1" parent="1">
          <mxGeometry x="400" y="430" width="60" height="30" as="geometry" />
        </mxCell>
        <mxCell id="rgqKugWzis6uIpZlZRa2-97" value="price" style="ellipse;whiteSpace=wrap;html=1;" vertex="1" parent="1">
          <mxGeometry x="300" y="430" width="70" height="30" as="geometry" />
        </mxCell>
        <mxCell id="rgqKugWzis6uIpZlZRa2-98" value="value" style="ellipse;whiteSpace=wrap;html=1;" vertex="1" parent="1">
          <mxGeometry x="755" y="540" width="80" height="30" as="geometry" />
        </mxCell>
        <mxCell id="rgqKugWzis6uIpZlZRa2-99" value="imageUrl" style="ellipse;whiteSpace=wrap;html=1;" vertex="1" parent="1">
          <mxGeometry x="830" y="510" width="80" height="30" as="geometry" />
        </mxCell>
        <mxCell id="rgqKugWzis6uIpZlZRa2-100" value="title" style="ellipse;whiteSpace=wrap;html=1;" vertex="1" parent="1">
          <mxGeometry x="840" y="460" width="70" height="40" as="geometry" />
        </mxCell>
        <mxCell id="rgqKugWzis6uIpZlZRa2-101" value="quantity" style="ellipse;whiteSpace=wrap;html=1;" vertex="1" parent="1">
          <mxGeometry x="785" y="410" width="70" height="40" as="geometry" />
        </mxCell>
        <mxCell id="rgqKugWzis6uIpZlZRa2-102" value="price" style="ellipse;whiteSpace=wrap;html=1;" vertex="1" parent="1">
          <mxGeometry x="840" y="350" width="60" height="40" as="geometry" />
        </mxCell>
        <mxCell id="rgqKugWzis6uIpZlZRa2-103" value="category" style="ellipse;whiteSpace=wrap;html=1;" vertex="1" parent="1">
          <mxGeometry x="760" y="325" width="70" height="40" as="geometry" />
        </mxCell>
        <mxCell id="rgqKugWzis6uIpZlZRa2-104" value="id" style="ellipse;whiteSpace=wrap;html=1;" vertex="1" parent="1">
          <mxGeometry x="670" y="355" width="70" height="30" as="geometry" />
        </mxCell>
        <mxCell id="rgqKugWzis6uIpZlZRa2-105" value="bookCategory" style="ellipse;whiteSpace=wrap;html=1;" vertex="1" parent="1">
          <mxGeometry x="770" y="220" width="100" height="40" as="geometry" />
        </mxCell>
        <mxCell id="rgqKugWzis6uIpZlZRa2-106" value="language" style="ellipse;whiteSpace=wrap;html=1;" vertex="1" parent="1">
          <mxGeometry x="800" y="75" width="70" height="35" as="geometry" />
        </mxCell>
        <mxCell id="rgqKugWzis6uIpZlZRa2-107" value="numberOfPage" style="ellipse;whiteSpace=wrap;html=1;" vertex="1" parent="1">
          <mxGeometry x="700" y="42.5" width="100" height="40" as="geometry" />
        </mxCell>
        <mxCell id="rgqKugWzis6uIpZlZRa2-108" value="publishDate" style="ellipse;whiteSpace=wrap;html=1;" vertex="1" parent="1">
          <mxGeometry x="830" y="175" width="80" height="40" as="geometry" />
        </mxCell>
        <mxCell id="rgqKugWzis6uIpZlZRa2-109" value="publisher" style="ellipse;whiteSpace=wrap;html=1;" vertex="1" parent="1">
          <mxGeometry x="830" y="120" width="80" height="40" as="geometry" />
        </mxCell>
        <mxCell id="rgqKugWzis6uIpZlZRa2-110" value="coverType" style="ellipse;whiteSpace=wrap;html=1;" vertex="1" parent="1">
          <mxGeometry x="610" y="55" width="80" height="50" as="geometry" />
        </mxCell>
        <mxCell id="rgqKugWzis6uIpZlZRa2-111" value="author" style="ellipse;whiteSpace=wrap;html=1;" vertex="1" parent="1">
          <mxGeometry x="575" y="120" width="70" height="40" as="geometry" />
        </mxCell>
        <mxCell id="rgqKugWzis6uIpZlZRa2-112" value="id" style="ellipse;whiteSpace=wrap;html=1;" vertex="1" parent="1">
          <mxGeometry x="570" y="180" width="50" height="35" as="geometry" />
        </mxCell>
        <mxCell id="rgqKugWzis6uIpZlZRa2-114" value="" style="endArrow=none;html=1;rounded=0;entryX=1;entryY=0.5;entryDx=0;entryDy=0;exitX=0.5;exitY=1;exitDx=0;exitDy=0;" edge="1" parent="1" source="rgqKugWzis6uIpZlZRa2-104" target="rgqKugWzis6uIpZlZRa2-69">
          <mxGeometry width="50" height="50" relative="1" as="geometry">
            <mxPoint x="360" y="560" as="sourcePoint" />
            <mxPoint x="410" y="510" as="targetPoint" />
          </mxGeometry>
        </mxCell>
        <mxCell id="rgqKugWzis6uIpZlZRa2-115" value="" style="endArrow=none;html=1;rounded=0;entryX=1;entryY=0.25;entryDx=0;entryDy=0;" edge="1" parent="1" source="rgqKugWzis6uIpZlZRa2-103" target="rgqKugWzis6uIpZlZRa2-69">
          <mxGeometry width="50" height="50" relative="1" as="geometry">
            <mxPoint x="370" y="570" as="sourcePoint" />
            <mxPoint x="420" y="520" as="targetPoint" />
          </mxGeometry>
        </mxCell>
        <mxCell id="rgqKugWzis6uIpZlZRa2-116" value="" style="endArrow=none;html=1;rounded=0;exitX=0;exitY=0.5;exitDx=0;exitDy=0;" edge="1" parent="1" source="rgqKugWzis6uIpZlZRa2-102" target="rgqKugWzis6uIpZlZRa2-69">
          <mxGeometry width="50" height="50" relative="1" as="geometry">
            <mxPoint x="380" y="580" as="sourcePoint" />
            <mxPoint x="430" y="530" as="targetPoint" />
          </mxGeometry>
        </mxCell>
        <mxCell id="rgqKugWzis6uIpZlZRa2-117" value="" style="endArrow=none;html=1;rounded=0;entryX=0.75;entryY=1;entryDx=0;entryDy=0;" edge="1" parent="1" source="rgqKugWzis6uIpZlZRa2-101" target="rgqKugWzis6uIpZlZRa2-69">
          <mxGeometry width="50" height="50" relative="1" as="geometry">
            <mxPoint x="390" y="590" as="sourcePoint" />
            <mxPoint x="440" y="540" as="targetPoint" />
          </mxGeometry>
        </mxCell>
        <mxCell id="rgqKugWzis6uIpZlZRa2-118" value="" style="endArrow=none;html=1;rounded=0;entryX=1;entryY=0.75;entryDx=0;entryDy=0;" edge="1" parent="1" target="rgqKugWzis6uIpZlZRa2-69">
          <mxGeometry width="50" height="50" relative="1" as="geometry">
            <mxPoint x="840" y="480" as="sourcePoint" />
            <mxPoint x="450" y="550" as="targetPoint" />
          </mxGeometry>
        </mxCell>
        <mxCell id="rgqKugWzis6uIpZlZRa2-119" value="" style="endArrow=none;html=1;rounded=0;entryX=1;entryY=0.75;entryDx=0;entryDy=0;" edge="1" parent="1" target="rgqKugWzis6uIpZlZRa2-69">
          <mxGeometry width="50" height="50" relative="1" as="geometry">
            <mxPoint x="840" y="520" as="sourcePoint" />
            <mxPoint x="460" y="560" as="targetPoint" />
          </mxGeometry>
        </mxCell>
        <mxCell id="rgqKugWzis6uIpZlZRa2-120" value="" style="endArrow=none;html=1;rounded=0;entryX=1;entryY=0.5;entryDx=0;entryDy=0;exitX=0;exitY=0;exitDx=0;exitDy=0;" edge="1" parent="1" source="rgqKugWzis6uIpZlZRa2-98" target="rgqKugWzis6uIpZlZRa2-69">
          <mxGeometry width="50" height="50" relative="1" as="geometry">
            <mxPoint x="420" y="620" as="sourcePoint" />
            <mxPoint x="470" y="570" as="targetPoint" />
          </mxGeometry>
        </mxCell>
        <mxCell id="rgqKugWzis6uIpZlZRa2-121" value="" style="endArrow=none;html=1;rounded=0;entryX=1;entryY=0.5;entryDx=0;entryDy=0;exitX=0;exitY=0.25;exitDx=0;exitDy=0;" edge="1" parent="1" source="rgqKugWzis6uIpZlZRa2-79" target="rgqKugWzis6uIpZlZRa2-112">
          <mxGeometry width="50" height="50" relative="1" as="geometry">
            <mxPoint x="430" y="630" as="sourcePoint" />
            <mxPoint x="480" y="580" as="targetPoint" />
          </mxGeometry>
        </mxCell>
        <mxCell id="rgqKugWzis6uIpZlZRa2-122" value="" style="endArrow=none;html=1;rounded=0;entryX=0.75;entryY=1;entryDx=0;entryDy=0;" edge="1" parent="1" source="rgqKugWzis6uIpZlZRa2-89" target="rgqKugWzis6uIpZlZRa2-81">
          <mxGeometry width="50" height="50" relative="1" as="geometry">
            <mxPoint x="440" y="640" as="sourcePoint" />
            <mxPoint x="490" y="590" as="targetPoint" />
          </mxGeometry>
        </mxCell>
        <mxCell id="rgqKugWzis6uIpZlZRa2-123" value="" style="endArrow=none;html=1;rounded=0;entryX=1;entryY=0.5;entryDx=0;entryDy=0;" edge="1" parent="1" source="rgqKugWzis6uIpZlZRa2-94" target="rgqKugWzis6uIpZlZRa2-81">
          <mxGeometry width="50" height="50" relative="1" as="geometry">
            <mxPoint x="450" y="650" as="sourcePoint" />
            <mxPoint x="500" y="600" as="targetPoint" />
          </mxGeometry>
        </mxCell>
        <mxCell id="rgqKugWzis6uIpZlZRa2-124" value="" style="endArrow=none;html=1;rounded=0;entryX=0.25;entryY=1;entryDx=0;entryDy=0;" edge="1" parent="1" source="rgqKugWzis6uIpZlZRa2-91" target="rgqKugWzis6uIpZlZRa2-81">
          <mxGeometry width="50" height="50" relative="1" as="geometry">
            <mxPoint x="460" y="660" as="sourcePoint" />
            <mxPoint x="510" y="610" as="targetPoint" />
          </mxGeometry>
        </mxCell>
        <mxCell id="rgqKugWzis6uIpZlZRa2-125" value="" style="endArrow=none;html=1;rounded=0;exitX=0.5;exitY=0;exitDx=0;exitDy=0;entryX=0.5;entryY=1;entryDx=0;entryDy=0;" edge="1" parent="1" source="rgqKugWzis6uIpZlZRa2-90" target="rgqKugWzis6uIpZlZRa2-81">
          <mxGeometry width="50" height="50" relative="1" as="geometry">
            <mxPoint x="470" y="670" as="sourcePoint" />
            <mxPoint x="520" y="620" as="targetPoint" />
          </mxGeometry>
        </mxCell>
        <mxCell id="rgqKugWzis6uIpZlZRa2-126" value="" style="endArrow=none;html=1;rounded=0;" edge="1" parent="1" source="rgqKugWzis6uIpZlZRa2-92" target="rgqKugWzis6uIpZlZRa2-81">
          <mxGeometry width="50" height="50" relative="1" as="geometry">
            <mxPoint x="480" y="680" as="sourcePoint" />
            <mxPoint x="530" y="630" as="targetPoint" />
          </mxGeometry>
        </mxCell>
        <mxCell id="rgqKugWzis6uIpZlZRa2-127" value="" style="endArrow=none;html=1;rounded=0;entryX=1;entryY=0.5;entryDx=0;entryDy=0;exitX=0;exitY=0;exitDx=0;exitDy=0;" edge="1" parent="1" source="rgqKugWzis6uIpZlZRa2-95" target="rgqKugWzis6uIpZlZRa2-81">
          <mxGeometry width="50" height="50" relative="1" as="geometry">
            <mxPoint x="490" y="690" as="sourcePoint" />
            <mxPoint x="540" y="640" as="targetPoint" />
          </mxGeometry>
        </mxCell>
        <mxCell id="rgqKugWzis6uIpZlZRa2-128" value="" style="endArrow=none;html=1;rounded=0;" edge="1" parent="1" target="rgqKugWzis6uIpZlZRa2-81">
          <mxGeometry width="50" height="50" relative="1" as="geometry">
            <mxPoint x="560" y="720" as="sourcePoint" />
            <mxPoint x="550" y="650" as="targetPoint" />
          </mxGeometry>
        </mxCell>
        <mxCell id="rgqKugWzis6uIpZlZRa2-129" value="" style="endArrow=none;html=1;rounded=0;" edge="1" parent="1">
          <mxGeometry width="50" height="50" relative="1" as="geometry">
            <mxPoint x="430" y="440" as="sourcePoint" />
            <mxPoint x="388" y="380" as="targetPoint" />
          </mxGeometry>
        </mxCell>
        <mxCell id="rgqKugWzis6uIpZlZRa2-130" value="" style="endArrow=none;html=1;rounded=0;entryX=0.5;entryY=1;entryDx=0;entryDy=0;exitX=0.5;exitY=0;exitDx=0;exitDy=0;" edge="1" parent="1" source="rgqKugWzis6uIpZlZRa2-97" target="rgqKugWzis6uIpZlZRa2-70">
          <mxGeometry width="50" height="50" relative="1" as="geometry">
            <mxPoint x="520" y="720" as="sourcePoint" />
            <mxPoint x="570" y="670" as="targetPoint" />
          </mxGeometry>
        </mxCell>
        <mxCell id="rgqKugWzis6uIpZlZRa2-131" value="" style="endArrow=none;html=1;rounded=0;entryX=1;entryY=0.5;entryDx=0;entryDy=0;" edge="1" parent="1" source="rgqKugWzis6uIpZlZRa2-79" target="rgqKugWzis6uIpZlZRa2-111">
          <mxGeometry width="50" height="50" relative="1" as="geometry">
            <mxPoint x="440" y="640" as="sourcePoint" />
            <mxPoint x="490" y="590" as="targetPoint" />
          </mxGeometry>
        </mxCell>
        <mxCell id="rgqKugWzis6uIpZlZRa2-132" value="" style="endArrow=none;html=1;rounded=0;exitX=0.5;exitY=0;exitDx=0;exitDy=0;" edge="1" parent="1" source="rgqKugWzis6uIpZlZRa2-79" target="rgqKugWzis6uIpZlZRa2-107">
          <mxGeometry width="50" height="50" relative="1" as="geometry">
            <mxPoint x="450" y="650" as="sourcePoint" />
            <mxPoint x="500" y="600" as="targetPoint" />
          </mxGeometry>
        </mxCell>
        <mxCell id="rgqKugWzis6uIpZlZRa2-133" value="" style="endArrow=none;html=1;rounded=0;entryX=0;entryY=1;entryDx=0;entryDy=0;exitX=0.75;exitY=0;exitDx=0;exitDy=0;" edge="1" parent="1" source="rgqKugWzis6uIpZlZRa2-79" target="rgqKugWzis6uIpZlZRa2-106">
          <mxGeometry width="50" height="50" relative="1" as="geometry">
            <mxPoint x="460" y="660" as="sourcePoint" />
            <mxPoint x="510" y="610" as="targetPoint" />
          </mxGeometry>
        </mxCell>
        <mxCell id="rgqKugWzis6uIpZlZRa2-134" value="" style="endArrow=none;html=1;rounded=0;" edge="1" parent="1" source="rgqKugWzis6uIpZlZRa2-79" target="rgqKugWzis6uIpZlZRa2-110">
          <mxGeometry width="50" height="50" relative="1" as="geometry">
            <mxPoint x="470" y="670" as="sourcePoint" />
            <mxPoint x="520" y="620" as="targetPoint" />
          </mxGeometry>
        </mxCell>
        <mxCell id="rgqKugWzis6uIpZlZRa2-135" value="" style="endArrow=none;html=1;rounded=0;exitX=0;exitY=0;exitDx=0;exitDy=0;" edge="1" parent="1" source="rgqKugWzis6uIpZlZRa2-108" target="rgqKugWzis6uIpZlZRa2-79">
          <mxGeometry width="50" height="50" relative="1" as="geometry">
            <mxPoint x="480" y="680" as="sourcePoint" />
            <mxPoint x="530" y="630" as="targetPoint" />
          </mxGeometry>
        </mxCell>
        <mxCell id="rgqKugWzis6uIpZlZRa2-136" value="" style="endArrow=none;html=1;rounded=0;entryX=0.75;entryY=1;entryDx=0;entryDy=0;" edge="1" parent="1" source="rgqKugWzis6uIpZlZRa2-105" target="rgqKugWzis6uIpZlZRa2-79">
          <mxGeometry width="50" height="50" relative="1" as="geometry">
            <mxPoint x="490" y="690" as="sourcePoint" />
            <mxPoint x="540" y="640" as="targetPoint" />
          </mxGeometry>
        </mxCell>
        <mxCell id="rgqKugWzis6uIpZlZRa2-137" value="" style="endArrow=none;html=1;rounded=0;entryX=1;entryY=0.25;entryDx=0;entryDy=0;" edge="1" parent="1" source="rgqKugWzis6uIpZlZRa2-109" target="rgqKugWzis6uIpZlZRa2-79">
          <mxGeometry width="50" height="50" relative="1" as="geometry">
            <mxPoint x="500" y="700" as="sourcePoint" />
            <mxPoint x="550" y="650" as="targetPoint" />
          </mxGeometry>
        </mxCell>
        <mxCell id="rgqKugWzis6uIpZlZRa2-138" value="&lt;font style=&quot;font-size: 22px&quot;&gt;Nguyễn Văn Dương 20173069&lt;/font&gt;" style="rounded=0;whiteSpace=wrap;html=1;" vertex="1" parent="1">
          <mxGeometry x="320" y="570" width="220" height="80" as="geometry" />
        </mxCell>
      </root>
    </mxGraphModel>
  </diagram>
</mxfile>
